<svg id="visual" viewBox="0 0 960 540" width="960" height="540" xmlns="http://www.w3.org/2000/svg" xmlns:xlink="http://www.w3.org/1999/xlink" version="1.1"><path d="M407 540L416.8 530C426.7 520 446.3 500 467.7 480C489 460 512 440 520 420C528 400 521 380 510.3 360C499.7 340 485.3 320 485 300C484.7 280 498.3 260 511.2 240C524 220 536 200 528.2 180C520.3 160 492.7 140 469.7 120C446.7 100 428.3 80 437.5 60C446.7 40 483.3 20 501.7 10L520 0L960 0L960 10C960 20 960 40 960 60C960 80 960 100 960 120C960 140 960 160 960 180C960 200 960 220 960 240C960 260 960 280 960 300C960 320 960 340 960 360C960 380 960 400 960 420C960 440 960 460 960 480C960 500 960 520 960 530L960 540Z" fill="#00f0ff" stroke-linecap="round" stroke-linejoin="miter"></path></svg>