<svg id="visual" viewBox="0 0 960 540" width="960" height="540" xmlns="http://www.w3.org/2000/svg" xmlns:xlink="http://www.w3.org/1999/xlink" version="1.1"><path d="M499 0L490.3 10C481.7 20 464.3 40 445.2 60C426 80 405 100 397.7 120C390.3 140 396.7 160 406.3 180C416 200 429 220 429.3 240C429.7 260 417.3 280 405.8 300C394.3 320 383.7 340 390.8 360C398 380 423 400 443.7 420C464.3 440 480.7 460 472.2 480C463.7 500 430.3 520 413.7 530L397 540L0 540L0 530C0 520 0 500 0 480C0 460 0 440 0 420C0 400 0 380 0 360C0 340 0 320 0 300C0 280 0 260 0 240C0 220 0 200 0 180C0 160 0 140 0 120C0 100 0 80 0 60C0 40 0 20 0 10L0 0Z" fill="#00f0ff" stroke-linecap="round" stroke-linejoin="miter"></path></svg>