<svg id="visual" viewBox="0 0 960 540" width="960" height="540" xmlns="http://www.w3.org/2000/svg" xmlns:xlink="http://www.w3.org/1999/xlink" version="1.1"><path d="M555 0L545.2 10C535.3 20 515.7 40 494.3 60C473 80 450 100 442 120C434 140 441 160 451.7 180C462.3 200 476.7 220 477 240C477.3 260 463.7 280 450.8 300C438 320 426 340 433.8 360C441.7 380 469.3 400 492.3 420C515.3 440 533.7 460 524.5 480C515.3 500 478.7 520 460.3 530L442 540L0 540L0 530C0 520 0 500 0 480C0 460 0 440 0 420C0 400 0 380 0 360C0 340 0 320 0 300C0 280 0 260 0 240C0 220 0 200 0 180C0 160 0 140 0 120C0 100 0 80 0 60C0 40 0 20 0 10L0 0Z" fill="#00f0ff" stroke-linecap="round" stroke-linejoin="miter"></path></svg>