<svg id="visual" viewBox="0 0 960 540" width="960" height="540" xmlns="http://www.w3.org/2000/svg" xmlns:xlink="http://www.w3.org/1999/xlink" version="1.1"><path d="M751 540L740.2 530C729.3 520 707.7 500 698.7 480C689.7 460 693.3 440 683.7 420C674 400 651 380 655.5 360C660 340 692 320 703.2 300C714.3 280 704.7 260 698.5 240C692.3 220 689.7 200 691.8 180C694 160 701 140 718.8 120C736.7 100 765.3 80 765.7 60C766 40 738 20 724 10L710 0L960 0L960 10C960 20 960 40 960 60C960 80 960 100 960 120C960 140 960 160 960 180C960 200 960 220 960 240C960 260 960 280 960 300C960 320 960 340 960 360C960 380 960 400 960 420C960 440 960 460 960 480C960 500 960 520 960 530L960 540Z" fill="#00f0ff" stroke-linecap="round" stroke-linejoin="miter"></path></svg>